<svg width="256" height="256" viewBox="0 0 256 256" fill="none" xmlns="http://www.w3.org/2000/svg">
  <path d="M78 82C90.1503 82 100 72.1503 100 60C100 47.8497 90.1503 38 78 38C65.8497 38 56 47.8497 56 60C56 72.1503 65.8497 82 78 82Z" fill="#FFA500"/>
  <path d="M178 82C190.15 82 200 72.1503 200 60C200 47.8497 190.15 38 178 38C165.85 38 156 47.8497 156 60C156 72.1503 165.85 82 178 82Z" fill="#FFA500"/>
  <path d="M220 134C220 186.467 178.81 229 128 229C77.1898 229 36 186.467 36 134C36 81.533 77.1898 39 128 39C178.81 39 220 81.533 220 134Z" fill="#FFA500"/>
  <path d="M128 176C145.673 176 160 161.673 160 144C160 126.327 145.673 112 128 112C110.327 112 96 126.327 96 144C96 161.673 110.327 176 128 176Z" fill="#FFD700"/>
  <path d="M112 144C112 135.163 119.163 128 128 128C136.837 128 144 135.163 144 144C144 152.837 136.837 160 128 160C119.163 160 112 152.837 112 144Z" fill="#333333"/>
  <path d="M92 108C96.4183 108 100 104.418 100 100C100 95.5817 96.4183 92 92 92C87.5817 92 84 95.5817 84 100C84 104.418 87.5817 108 92 108Z" fill="#333333"/>
  <path d="M164 108C168.418 108 172 104.418 172 100C172 95.5817 168.418 92 164 92C159.582 92 156 95.5817 156 100C156 104.418 159.582 108 164 108Z" fill="#333333"/>
</svg>
